<?xml version="1.0" standalone="no"?>
<!DOCTYPE svg PUBLIC "-//W3C//DTD SVG 20010904//EN"
 "http://www.w3.org/TR/2001/REC-SVG-20010904/DTD/svg10.dtd">
<svg version="1.0" xmlns="http://www.w3.org/2000/svg"
 width="240.000000pt" height="240.000000pt" viewBox="0 0 240.000000 240.000000"
 preserveAspectRatio="xMidYMid meet">
<metadata>
Created by potrace 1.14, written by Peter Selinger 2001-2017
</metadata>
<g transform="translate(0.000000,240.000000) scale(0.100000,-0.100000)"
fill="#000000" stroke="none">
<path d="M2340 2065 c-53 -31 -240 -84 -350 -101 -90 -13 -152 -15 -285 -10
-171 6 -206 10 -585 66 -506 75 -725 63 -1022 -53 l-78 -30 0 -809 0 -809 29
15 c52 28 155 63 251 87 87 22 115 24 340 23 217 0 265 -3 420 -27 475 -75
440 -71 705 -71 247 0 251 0 365 31 63 17 145 44 183 61 l67 31 0 805 c0 443
-3 806 -7 806 -5 -1 -19 -7 -33 -15z m-1250 -855 c271 -41 473 -67 595 -75
187 -12 434 24 593 86 40 16 75 29 79 29 3 0 3 -172 -1 -382 l-6 -383 -25 -12
c-67 -36 -239 -83 -355 -99 -201 -26 -370 -15 -845 55 -470 69 -742 59 -991
-38 -43 -17 -82 -31 -87 -31 -4 0 -6 174 -5 388 l3 387 85 32 c85 32 185 58
283 74 29 4 147 6 262 4 173 -3 246 -9 415 -35z"/>
</g>
</svg>
